PathFileType	4	(X/Y/Z)	C:\Users\Basilio\Documents\Thesis Gigler\squatting_fais\c3dfiles\019\SJ_pre1\markers_experimental.trc
DataRate	CameraRate	NumFrames	NumMarkers	Units	OrigDataRate	OrigDataStartFrame	OrigNumFrames
200.000000	200.000000	4	59	mm	200.000000	293	1173
Frame#	Time	FHD			LBHD			RBHD			C7			T10			CLAV			LSHO			LUUPA			LMUPA			LDUPA			LLEP			LMEP			LRAD			LUL			LRFIN			RSHO			RUPA1			RMUPA			RDUPA			RLEP			RMEP			RRAD			RUL			RUFIN			LASI			RASI			USACR			LSACR			RSACR			LTHI1			LTHI2			LTHI3			LTHI4			LLFC			LTIB1			LTIB2			LTIB3			LTIB4			LLMAL			LMMAL			LHEE			LMT1			LMT2			LMT5			RTHI			RTHI2			RTHI3			RTHI4			RLFC			RTIB1			RTIB2			RTIB3			RTIB4			RLMAL			RMMAL			RHEE			RMT1			RMT2			RMT5			
		X1	Y1	Z1	X2	Y2	Z2	X3	Y3	Z3	X4	Y4	Z4	X5	Y5	Z5	X6	Y6	Z6	X7	Y7	Z7	X8	Y8	Z8	X9	Y9	Z9	X10	Y10	Z10	X11	Y11	Z11	X12	Y12	Z12	X13	Y13	Z13	X14	Y14	Z14	X15	Y15	Z15	X16	Y16	Z16	X17	Y17	Z17	X18	Y18	Z18	X19	Y19	Z19	X20	Y20	Z20	X21	Y21	Z21	X22	Y22	Z22	X23	Y23	Z23	X24	Y24	Z24	X25	Y25	Z25	X26	Y26	Z26	X27	Y27	Z27	X28	Y28	Z28	X29	Y29	Z29	X30	Y30	Z30	X31	Y31	Z31	X32	Y32	Z32	X33	Y33	Z33	X34	Y34	Z34	X35	Y35	Z35	X36	Y36	Z36	X37	Y37	Z37	X38	Y38	Z38	X39	Y39	Z39	X40	Y40	Z40	X41	Y41	Z41	X42	Y42	Z42	X43	Y43	Z43	X44	Y44	Z44	X45	Y45	Z45	X46	Y46	Z46	X47	Y47	Z47	X48	Y48	Z48	X49	Y49	Z49	X50	Y50	Z50	X51	Y51	Z51	X52	Y52	Z52	X53	Y53	Z53	X54	Y54	Z54	X55	Y55	Z55	X56	Y56	Z56	X57	Y57	Z57	X58	Y58	Z58	X59	Y59	Z59	

294	1.465	132.8783111572266	918.0405883789065	-848.692810058594	0.6243794560432435	941.9405517578127	-990.7927856445315	-3.862224102020265	936.9119262695315	-851.2861328125002	-97.44055175781253	839.4725341796877	-917.3157348632815	-353.9249267578126	717.9811401367189	-920.750915527344	-43.15167617797852	699.5685424804689	-920.8076782226565	-49.45336532592775	774.6739501953127	-1072.717041015625	-176.4878540039063	729.7624511718751	-1180.561157226563	-212.4151916503907	701.7509765625001	-1162.548950195313	-234.8925933837891	721.3983154296876	-1213.366943359375	-299.3049926757813	740.3791503906251	-1266.81591796875	-338.6757812500001	796.9981079101565	-1239.979858398438	-472.9364013671876	618.4393310546876	-1122.828369140625	-473.3145141601564	581.4282226562501	-1181.913696289063	-437.628387451172	584.3320922851564	-1090.092041015625	-40.8747787475586	765.4880981445314	-775.1562500000002	-173.428939819336	772.0308227539065	-635.5627441406251	-191.4835662841797	724.1848754882814	-635.0590209960939	-228.3478546142579	750.1921997070314	-594.5764160156251	-297.8842468261719	722.4093627929689	-563.8710937500001	-330.3739624023438	781.5054931640627	-584.4044189453126	-477.1748657226564	615.6351928710939	-717.7965087890626	-469.214080810547	562.4639892578126	-674.6894531250001	-444.1061401367189	585.3768920898439	-764.2456054687501	-414.7630004882814	527.3302612304689	-1025.578857421875	-509.4155273437501	602.0780639648439	-841.6765136718752	-489.4011230468751	650.6925659179689	-923.752868652344	-519.6331787109376	634.1833496093751	-948.8116455078127	-518.4029541015626	632.9155883789064	-894.6583251953127	-403.4381103515626	451.5420532226564	-1156.747436523438	-324.3847045898438	476.7613525390626	-1178.692016601563	-309.0210571289063	516.9655761718751	-1157.837280273438	-276.4125976562501	440.7585754394532	-1192.618408203125	-195.2929687500001	415.7262573242189	-1196.711669921875	-166.889877319336	281.5060729980469	-1169.591430664063	-245.2371520996094	265.6486816406251	-1209.9423828125	-210.4072265625001	249.7350158691407	-1189.8037109375	-245.1931762695313	182.6664733886719	-1147.982788085938	-367.9084472656251	96.8587341308594	-1157.31884765625	-333.2212829589844	96.53533172607425	-1076.629150390625	-429.0200195312501	48.6015090942383	-1098.560913085938	-212.8305206298829	55.66011428833009	-1128.124877929688	-219.5155487060547	58.64736557006837	-1167.658203125	-270.5128784179688	35.95917129516602	-1211.32958984375	-456.7526245117189	490.9919433593751	-707.1405639648439	-398.731414794922	510.6630249023439	-707.5093383789064	-390.5913391113282	534.0228881835939	-735.5396118164064	-331.0602722167969	481.2539672851564	-672.7309570312501	-192.6504669189454	418.338104248047	-653.9907836914064	-182.8399658203125	246.0052337646485	-701.8889770507814	-278.4605102539063	205.9364318847657	-662.6005249023439	-244.1543731689454	189.2147827148438	-689.8093872070314	-257.6397705078126	147.2287750244141	-729.4534301757814	-359.2021484375001	98.5225524902344	-700.5317382812501	-322.4259948730469	93.5726776123047	-773.775817871094	-410.127166748047	45.96627044677735	-761.8859252929689	-206.4531707763672	52.41765213012697	-712.2829589843751	-217.3883514404297	59.91458892822267	-668.1611938476564	-272.4552612304688	42.25647735595704	-629.7555541992189	
295	1.47	132.8704528808594	917.7337646484377	-848.8101806640627	0.6245317459106446	941.3941040039065	-991.0039062500002	-3.89671802520752	936.7380371093752	-851.4356689453127	-97.26229095458987	839.092956542969	-917.3746337890627	-354.0534362792969	717.7618408203126	-920.825134277344	-43.18648529052735	699.1235961914064	-920.8043212890627	-49.31095504760744	774.3182373046877	-1072.861572265625	-176.4111938476563	729.2975463867189	-1180.562622070313	-212.2268981933594	701.3203735351564	-1162.583984375	-234.793930053711	720.9599609375001	-1213.442749023438	-299.1743774414063	740.0391235351564	-1266.906005859375	-338.5559997558594	796.6882324218752	-1240.11279296875	-473.0459899902345	618.3311157226564	-1122.87646484375	-473.3378906250001	581.2130126953126	-1181.925537109375	-437.186737060547	583.9241333007814	-1090.203369140625	-40.84204483032227	764.9691772460939	-775.1810302734377	-173.4786071777344	771.776550292969	-635.7167968750001	-191.3738098144532	724.1204833984376	-634.3976440429689	-228.5001983642579	750.2041625976564	-594.9165039062501	-298.0387573242188	722.3837280273439	-563.9145507812501	-330.5669860839844	781.4995117187502	-584.6140136718751	-477.2998657226564	615.5826416015626	-717.8995361328126	-469.3790283203126	562.3223266601564	-674.6545410156251	-444.6898803710939	585.3054199218751	-764.4207763671876	-414.2207641601564	527.0403442382814	-1024.71044921875	-509.2824707031251	601.9819946289064	-841.5176391601565	-489.4368591308595	650.5410156250001	-923.8581542968752	-519.7830810546876	633.9801635742189	-948.8699340820315	-518.4880981445314	632.7278442382814	-894.7784423828127	-403.5409545898439	451.4085388183595	-1156.80517578125	-324.3674011230469	476.6572570800782	-1178.685302734375	-309.0645751953126	516.8776855468751	-1157.847045898438	-276.3684387207032	440.6990966796876	-1192.586791992188	-195.3250732421876	415.6533813476564	-1196.73291015625	-166.8460693359375	281.5225524902344	-1169.791015625	-245.0971679687501	265.5997009277344	-1209.89453125	-210.3692779541016	249.7073669433594	-1189.824340820313	-245.1875152587891	182.6632537841797	-1147.986938476563	-367.9013366699219	96.85159301757815	-1157.288452148438	-333.2037048339844	96.51987457275393	-1076.63330078125	-429.016815185547	48.60518264770509	-1098.544921875	-212.8906555175782	55.63505935668947	-1128.176147460938	-219.4770202636719	58.63890075683595	-1167.585571289063	-270.4680786132813	35.95385742187501	-1211.351928710938	-456.9987182617189	490.8876037597657	-707.2495117187501	-398.8781738281251	510.5760498046876	-707.5934448242189	-390.6957092285157	533.7366943359376	-735.5794067382814	-331.1844177246094	481.1841430664064	-672.7168579101564	-192.7978515625001	418.324676513672	-653.9410400390626	-182.7934112548828	246.0046691894532	-701.7613525390626	-278.6318969726563	205.9279022216797	-662.6643676757814	-244.0466766357422	189.3092498779297	-689.7273559570314	-257.4785156250001	147.0103759765625	-729.5306396484376	-359.1619567871094	98.46260070800784	-700.5168457031251	-322.4637756347657	93.59854888916017	-773.7967529296877	-410.1261596679689	45.96733474731446	-761.8795166015626	-206.4888153076172	52.40816116333009	-712.2993774414064	-218.2394714355469	60.25044631958009	-668.1151733398439	-272.3987426757813	42.24286651611329	-629.7383422851564	
296	1.475	132.8231658935547	917.3636474609377	-848.9160156250002	0.7280058264732362	940.872009277344	-991.2307739257815	-3.996330022811891	936.4797363281252	-851.5410156250002	-97.22698974609378	838.7527465820315	-917.3880615234377	-354.1946105957032	717.5792236328126	-920.9523925781252	-43.25451660156251	698.7533569335939	-920.8977050781252	-49.38982009887697	773.7266235351565	-1072.76318359375	-176.3296508789063	728.8881225585939	-1180.700561523438	-212.448959350586	701.0608520507814	-1162.625244140625	-234.7620544433594	720.5548706054689	-1213.56591796875	-299.1312561035157	739.7041625976564	-1267	-338.3907165527344	796.3681640625002	-1240.268432617188	-473.2604980468751	618.1076660156251	-1122.946166992188	-473.3714599609376	581.0553588867189	-1181.9580078125	-438.2296447753907	584.1105346679689	-1090.292236328125	-40.93978881835938	764.5469970703126	-775.1614379882815	-173.5650482177735	771.529479980469	-635.7761840820314	-191.3597106933594	724.0229492187501	-634.3103027343751	-228.6446380615235	750.0880737304689	-595.0225219726564	-298.2547607421876	722.3835449218751	-563.9804687500001	-330.6172790527344	781.5151977539065	-584.8033447265626	-477.4388122558595	615.4697875976564	-718.0581665039064	-469.5726928710939	562.3275756835939	-674.7887573242189	-444.7987060546876	585.1141967773439	-764.6068115234376	-414.7391357421876	528.0562133789064	-1026.534545898438	-507.0178833007814	601.2991333007814	-841.6527099609377	-489.4692382812501	650.3366699218751	-923.9787597656252	-519.9304809570314	634.0580444335939	-948.927185058594	-517.3060913085939	632.5100097656251	-894.7901000976565	-403.4161682128907	451.2271118164064	-1156.818359375	-324.4290771484376	476.5940551757814	-1178.747192382813	-309.0824584960938	516.7575683593751	-1157.825927734375	-276.4266662597657	440.6223754882814	-1192.666015625	-195.3749084472657	415.6829528808595	-1196.711791992188	-167.0977935791016	281.6777954101563	-1169.527221679688	-245.1220397949219	265.6180725097657	-1209.964233398438	-210.3289184570313	249.7351074218751	-1189.80029296875	-245.1749877929688	182.6418151855469	-1147.987548828125	-367.8550415039063	96.82318878173831	-1157.3134765625	-333.2173156738282	96.49433898925784	-1076.637084960938	-429.0266418457032	48.61020660400392	-1098.535522460938	-212.8208618164063	55.68355941772462	-1128.114990234375	-219.4889678955079	58.63486480712892	-1167.606811523438	-270.4692687988282	35.94972229003907	-1211.317016601563	-457.1585388183595	490.8423156738282	-707.3263549804689	-399.0615234375001	510.5014038085939	-707.7971191406251	-390.9155273437501	533.7268066406251	-735.5618286132814	-331.3547668457032	481.1426086425782	-672.7603149414064	-192.9368591308594	418.3766479492189	-653.9442749023439	-182.8766632080078	246.0169982910157	-701.5747680664064	-278.7365417480469	205.9742584228516	-662.6367797851564	-244.0464935302735	189.3088531494141	-689.7272949218751	-257.7049255371094	147.1343231201172	-729.5122680664064	-359.2587280273438	98.45857238769534	-700.5128784179689	-322.4798889160157	93.58333587646486	-773.735046386719	-410.0507812500001	45.85145950317384	-761.8814086914064	-206.5068054199219	52.45205688476564	-712.3209838867189	-217.3864746093751	59.91077804565431	-668.1587524414064	-272.4191894531251	42.22634887695313	-629.7347412109376	
297	1.48	132.8402099609375	917.096374511719	-849.1395263671877	0.3389333784580231	940.5543212890627	-991.453796386719	-4.011197090148927	935.9661865234377	-851.7673950195315	-97.30512237548831	838.4927368164065	-917.5842285156252	-354.1061096191407	717.2565917968751	-921.0955810546877	-43.24522781372071	698.3539428710939	-920.8530273437502	-49.27186965942384	773.2742919921877	-1072.859619140625	-176.3683319091797	728.4580078125001	-1180.779907226563	-212.2463989257813	700.6165771484376	-1162.795776367188	-234.8453674316407	720.1903076171876	-1213.637084960938	-299.0202941894532	739.3659057617189	-1267.074096679688	-338.2874450683594	796.0230712890627	-1240.394165039063	-473.3417968750001	617.9388427734376	-1122.971801757813	-473.3796691894532	580.8485107421876	-1182.047485351563	-438.4480895996095	583.9710693359376	-1090.252075195313	-40.98125076293946	764.3513183593751	-775.1928710937502	-173.7191925048828	771.5793457031252	-635.9038085937501	-191.7860565185547	723.6342163085939	-635.3599853515626	-228.7192840576172	749.8943481445314	-594.8713989257814	-298.3991394042969	722.3540649414064	-564.1042480468751	-330.7471923828126	781.4609375000002	-584.9770507812501	-477.5191650390626	615.3815307617189	-718.1667480468751	-469.7352905273439	562.2578735351564	-674.9053955078126	-444.7116699218751	584.9526367187501	-764.6864013671876	-415.0901489257814	527.8557739257814	-1026.521606445313	-506.8541259765626	600.8668823242189	-841.6461181640627	-489.5019531250001	650.1721191406251	-924.0107421875002	-519.9869995117189	633.8955078125001	-948.972595214844	-517.4931640625001	632.4591674804689	-894.821228027344	-403.5365295410157	451.1586914062501	-1156.844116210938	-324.4204711914063	476.5288696289064	-1178.766479492188	-309.1200866699219	516.6631469726564	-1157.829223632813	-276.3790893554688	440.5562744140626	-1192.66455078125	-195.2912902832032	415.597381591797	-1196.684448242188	-166.678939819336	281.3403320312501	-1169.6552734375	-245.1487274169922	265.6358947753907	-1209.920654296875	-210.3736114501954	249.6897583007813	-1189.807495117188	-245.1584625244141	182.6306457519532	-1147.935180664063	-367.8838500976563	96.85968017578128	-1157.285400390625	-333.2444763183594	96.5205001831055	-1076.629150390625	-429.011444091797	48.58538055419923	-1098.558227539063	-212.8632965087891	55.76760482788087	-1128.094848632813	-219.4622192382813	58.65414428710939	-1167.58251953125	-270.5183410644532	35.98720169067384	-1211.307373046875	-457.3524169921876	490.6845092773439	-707.3289184570314	-399.3035583496095	510.3818664550782	-707.7916870117189	-391.0725708007814	533.6967773437501	-735.6613159179689	-331.5231933593751	481.1167907714845	-672.8024902343751	-193.0535583496094	418.3960571289064	-653.9058227539064	-182.9212646484375	246.0099792480469	-701.6336059570314	-278.5653076171876	205.9602508544922	-662.5737915039064	-244.0417938232422	189.2947082519532	-689.6837768554689	-257.7094726562501	147.20947265625	-729.5153808593751	-359.2593688964844	98.4560470581055	-700.5155029296876	-322.5398864746094	93.5643997192383	-773.7979736328127	-410.0705871582032	45.8385238647461	-761.9110107421876	-206.5100708007813	52.4753761291504	-712.3170166015626	-217.386703491211	59.97047805786134	-668.1614990234376	-272.4156188964844	42.24906921386719	-629.7426757812501	
